<svg width="77" height="39" viewBox="0 0 77 39" fill="none" xmlns="http://www.w3.org/2000/svg">
<path d="M6.53304 28.1175C5.96304 28.1175 5.66304 27.9975 5.66304 27.7575C5.66304 27.5475 5.99304 27.3675 6.65304 27.2475C8.21304 26.9775 8.99304 26.1375 8.99304 24.7275V20.2875C8.99304 19.7175 8.75304 18.9675 8.24304 18.0675L4.73304 12.3075C3.62304 10.5375 2.75304 9.57753 2.09304 9.36753C1.40304 9.15753 1.07304 8.94753 1.07304 8.70753C1.07304 8.49753 1.37304 8.37753 1.94304 8.37753L5.45304 8.46753L7.85304 8.40753C8.42304 8.40753 8.72304 8.52753 8.72304 8.73753C8.72304 9.00753 8.39304 9.18753 7.76304 9.33753C7.10304 9.48753 6.77304 9.75753 6.77304 10.0875C6.77304 10.3575 6.89304 10.7175 7.16304 11.1675L9.92304 16.1175C10.373 16.8675 10.643 17.2575 10.763 17.2575C11.093 17.2575 12.263 15.4875 14.273 11.9475C14.633 11.3475 14.813 10.8375 14.813 10.4175C14.813 9.84753 14.393 9.48753 13.583 9.36753C13.133 9.27753 12.593 9.00753 12.593 8.76753C12.593 8.55753 12.893 8.43753 13.463 8.43753L15.713 8.46753L18.833 8.37753C19.403 8.37753 19.703 8.46753 19.703 8.67753C19.703 8.88753 19.163 9.15753 18.113 9.45753C17.633 9.60753 17.243 9.84753 16.913 10.2075C16.103 11.0775 14.513 13.5375 12.143 17.5875C11.423 18.8175 11.393 19.0575 11.393 20.2875V24.7275C11.393 26.0775 12.263 26.9775 13.703 27.2175C14.393 27.3675 14.753 27.5475 14.753 27.7575C14.753 27.9975 14.453 28.1175 13.883 28.1175L10.373 27.9675L6.53304 28.1175ZM25.4368 28.3875C22.0468 28.3875 19.4668 25.8375 19.4668 22.3575C19.4668 18.9075 22.4668 15.5475 25.9768 15.5475C29.4868 15.5475 32.2168 18.2475 32.2168 21.7575C32.2168 25.2675 29.7268 28.3875 25.4368 28.3875ZM26.0668 27.4875C29.0668 27.4875 29.7568 25.4475 29.7568 22.3575C29.7568 19.2675 27.9568 16.4775 25.5268 16.4775C23.1268 16.4775 21.9268 18.2175 21.9268 21.6675C21.9268 24.7575 23.7568 27.4875 26.0668 27.4875ZM44.2803 28.5375C44.1303 28.5375 44.0403 28.5075 44.0403 28.4175L44.1903 26.4375V26.2575C42.7503 27.6675 41.1003 28.3875 39.2403 28.3875C37.2003 28.3875 35.8203 27.0975 35.8203 24.8175V18.7275C35.8203 17.9175 35.4003 17.3475 34.5303 17.0175C34.2603 16.9275 34.1403 16.7775 34.1403 16.5075C34.1403 16.2675 34.2903 16.1175 34.5903 16.0575C35.2803 16.0275 36.3303 15.8775 37.6803 15.5475H37.7403C37.9803 15.5475 38.1303 15.7275 38.1003 15.9675C37.9803 16.8975 37.9203 17.6475 37.9203 18.2775V24.1275C37.9203 25.5675 39.1503 26.8575 40.4403 26.8575C42.7503 26.8575 44.3103 25.6875 44.3103 24.0075V18.5175C44.3103 17.4375 43.2903 17.0475 42.3603 17.0175C41.9103 17.0175 41.6703 16.8375 41.6703 16.5075C41.6703 16.3575 41.7603 16.2375 41.9403 16.1475C42.0903 16.0875 42.3603 16.0575 42.7203 16.0275C43.4403 16.0275 44.2203 15.9675 44.7303 15.8775C45.0003 15.8475 45.1803 15.8175 45.2703 15.7875C45.3903 15.7875 45.7203 15.6975 46.2303 15.5175H46.2903C46.5003 15.5175 46.6803 15.6675 46.6803 15.8775C46.6803 15.9675 46.6503 16.0575 46.5903 16.1775C46.4703 16.3875 46.4103 17.0475 46.4103 18.1875V24.5475C46.4103 25.9275 46.5903 26.6175 46.9503 26.6175C47.5803 26.6175 48.0303 26.5875 48.3303 26.5275H48.4203C48.6603 26.5275 48.7803 26.6175 48.7803 26.8875C48.7803 27.1875 48.6303 27.3375 48.3603 27.3375C47.3103 27.4875 46.4103 27.6975 45.6603 28.0275C44.8803 28.3575 44.4303 28.5375 44.2803 28.5375ZM68.2006 28.5975C64.4506 28.5975 62.0506 24.6675 60.9406 22.9575C60.3706 22.1175 59.9206 21.3975 59.5906 20.8275C58.9006 19.7775 57.6706 19.1175 55.8406 18.9075H55.7806C55.5106 18.9075 55.3906 19.0875 55.3906 19.5075V24.6675C55.3906 26.1375 56.0506 27.0075 57.4006 27.2475C58.0606 27.3675 58.3906 27.5475 58.3906 27.7575C58.3906 27.9975 58.0906 28.1175 57.5206 28.1175C56.9506 28.1175 56.3806 28.0875 55.8706 27.9975C55.3606 27.9375 54.9106 27.9075 54.5806 27.9075L50.6806 28.1175C50.1106 28.1175 49.8106 27.9975 49.8106 27.7575C49.8106 27.5475 50.1706 27.3675 50.8906 27.2175C52.3306 26.9775 52.9906 26.4075 52.9906 24.9675V12.3075C52.9906 10.3875 52.6006 9.54753 51.2206 9.30753C50.5306 9.18753 50.1706 8.97753 50.1706 8.70753C50.1706 8.49753 50.4706 8.37753 51.0406 8.37753L53.9806 8.40753L57.4306 8.25753C61.9306 8.25753 64.1806 9.90753 64.1806 13.1775C64.1806 15.3375 63.0106 17.0175 60.6406 18.2175C60.5806 18.2475 60.5206 18.2775 60.5206 18.3675C60.5206 18.4275 60.5806 18.4875 60.6406 18.6075C62.4406 21.3375 62.6506 21.6975 64.2406 23.5875C65.0206 24.5475 65.8606 25.4175 66.7306 26.2275C67.6906 27.0675 68.5306 27.2175 70.1806 27.2175C70.4806 27.2175 70.6306 27.3375 70.6306 27.5475C70.6306 28.2975 69.3106 28.5975 68.2006 28.5975ZM56.9806 18.0975C59.6506 18.0975 61.4806 16.1175 61.4806 13.5075C61.4806 10.8975 60.5506 9.15753 57.4306 9.15753C55.9006 9.15753 55.5406 9.72753 55.5106 10.7775C55.4206 12.7275 55.3906 14.7975 55.3906 17.0475C55.3906 17.9775 55.8106 18.0975 56.9806 18.0975Z" fill="#EFE3D8"/>
<path d="M71.2426 0C71.8815 4.92051 71.8815 4.92051 77 5.61342C71.8815 6.23634 71.8815 6.23634 71.2426 11.2268C70.5319 6.23634 70.5319 6.23634 65.4851 5.61342C70.5319 4.92051 70.5319 4.92051 71.2426 0Z" fill="url(#paint0_linear_1_189)"/>
<defs>
<linearGradient id="paint0_linear_1_189" x1="65.5343" y1="0.0637116" x2="76.6447" y2="11.4593" gradientUnits="userSpaceOnUse">
<stop stop-color="#F39F4F"/>
<stop offset="1" stop-color="#BE7E41"/>
</linearGradient>
</defs>
</svg>
